<svg width="38" height="38" viewBox="0 0 38 38" fill="none" xmlns="http://www.w3.org/2000/svg">
<g id="Icons">
<mask id="mask0_1216_810" style="mask-type:alpha" maskUnits="userSpaceOnUse" x="0" y="0" width="38" height="39">
<rect id="Bounding box" y="0.00012207" width="38" height="38" fill="#D9D9D9"/>
</mask>
<g mask="url(#mask0_1216_810)">
<path id="campaign" d="M33.6462 20.1876H30.0837C29.7472 20.1876 29.4652 20.0731 29.2376 19.8442C29.01 19.6153 28.8962 19.3316 28.8962 18.9932C28.8962 18.6547 29.01 18.3734 29.2376 18.1491C29.4652 17.9248 29.7472 17.8126 30.0837 17.8126H33.6462C33.9826 17.8126 34.2646 17.9271 34.4923 18.156C34.7199 18.3849 34.8337 18.6686 34.8337 19.007C34.8337 19.3455 34.7199 19.6268 34.4923 19.8511C34.2646 20.0754 33.9826 20.1876 33.6462 20.1876ZM26.7982 27.1543C27.0094 26.8904 27.2709 26.732 27.583 26.6793C27.8951 26.6265 28.1877 26.7057 28.4607 26.9168L31.3503 29.0543C31.6142 29.2654 31.7725 29.527 31.8253 29.839C31.8781 30.1511 31.7989 30.4437 31.5878 30.7168C31.3767 30.9807 31.1151 31.139 30.803 31.1918C30.491 31.2445 30.1984 31.1654 29.9253 30.9543L27.0357 28.8168C26.7719 28.6057 26.6135 28.3441 26.5607 28.032C26.508 27.7199 26.5871 27.4273 26.7982 27.1543ZM31.3503 8.94594L28.5795 11.0439C28.3064 11.255 28.0138 11.3341 27.7018 11.2814C27.3897 11.2286 27.1281 11.0702 26.917 10.8064C26.7059 10.5425 26.6267 10.2522 26.6795 9.93552C26.7323 9.61885 26.8906 9.35496 27.1545 9.14385L29.9253 7.04594C30.1984 6.83482 30.491 6.75566 30.803 6.80844C31.1151 6.86121 31.3767 7.01955 31.5878 7.28344C31.7989 7.54732 31.8781 7.8376 31.8253 8.15427C31.7725 8.47094 31.6142 8.73482 31.3503 8.94594ZM8.31283 23.7501H5.54199C4.88887 23.7501 4.32975 23.5175 3.86465 23.0524C3.39954 22.5873 3.16699 22.0282 3.16699 21.3751V16.6251C3.16699 15.972 3.39954 15.4129 3.86465 14.9478C4.32975 14.4827 4.88887 14.2501 5.54199 14.2501H12.667L18.8024 10.5689C19.1982 10.3314 19.5941 10.3305 19.9899 10.5663C20.3857 10.8021 20.5837 11.146 20.5837 11.598V26.4022C20.5837 26.8542 20.3857 27.1981 19.9899 27.4339C19.5941 27.6697 19.1982 27.6689 18.8024 27.4314L12.667 23.7501H10.6878V28.8959C10.6878 29.2324 10.5734 29.5144 10.3444 29.742C10.1155 29.9696 9.83181 30.0834 9.4934 30.0834C9.15496 30.0834 8.87359 29.9696 8.64928 29.742C8.42498 29.5144 8.31283 29.2324 8.31283 28.8959V23.7501ZM22.167 24.3043V13.6959C22.8795 14.3293 23.4535 15.1011 23.8889 16.0116C24.3243 16.922 24.542 17.9182 24.542 19.0001C24.542 20.082 24.3243 21.0782 23.8889 21.9886C23.4535 22.8991 22.8795 23.6709 22.167 24.3043Z" fill="white"/>
</g>
</g>
</svg>
