<svg width="38" height="38" viewBox="0 0 38 38" fill="none" xmlns="http://www.w3.org/2000/svg">
<g id="Icons">
<mask id="mask0_1216_797" style="mask-type:alpha" maskUnits="userSpaceOnUse" x="0" y="0" width="38" height="39">
<rect id="Bounding box" y="0.00012207" width="38" height="38" fill="#D9D9D9"/>
</mask>
<g mask="url(#mask0_1216_797)">
<path id="mark_email_unread" d="M30.0837 12.271C28.8698 12.271 27.8406 11.8487 26.9962 11.0043C26.1517 10.1598 25.7295 9.13068 25.7295 7.91679C25.7295 6.7029 26.1517 5.67373 26.9962 4.82929C27.8406 3.98484 28.8698 3.56262 30.0837 3.56262C31.2975 3.56262 32.3267 3.98484 33.1712 4.82929C34.0156 5.67373 34.4378 6.7029 34.4378 7.91679C34.4378 9.13068 34.0156 10.1598 33.1712 11.0043C32.3267 11.8487 31.2975 12.271 30.0837 12.271ZM5.54199 31.6668C4.90866 31.6668 4.35449 31.4293 3.87949 30.9543C3.40449 30.4793 3.16699 29.9251 3.16699 29.2918V8.70846C3.16699 8.07512 3.40449 7.52096 3.87949 7.04596C4.35449 6.57096 4.90866 6.33346 5.54199 6.33346H22.7212C22.642 6.72929 22.5892 7.12512 22.5628 7.52096C22.5364 7.91679 22.5496 8.31262 22.6024 8.70846C22.708 9.63207 22.9653 10.4963 23.3743 11.3012C23.7833 12.106 24.3177 12.8119 24.9774 13.4189L19.0003 17.3376L7.00658 9.53971C6.68991 9.32859 6.36664 9.3154 6.03678 9.50012C5.70692 9.68484 5.54199 9.97512 5.54199 10.371C5.54199 10.5293 5.58158 10.681 5.66074 10.8262C5.73991 10.9713 5.84546 11.0835 5.97741 11.1626L18.367 19.2772C18.5781 19.4091 18.7892 19.4751 19.0003 19.4751C19.2114 19.4751 19.4225 19.4091 19.6337 19.2772L26.7191 14.646C27.2469 14.9098 27.7878 15.1078 28.342 15.2397C28.8962 15.3716 29.4767 15.4376 30.0837 15.4376C30.9545 15.4376 31.7923 15.2925 32.5972 15.0022C33.4021 14.7119 34.1475 14.2897 34.8337 13.7355V29.2918C34.8337 29.9251 34.5962 30.4793 34.1212 30.9543C33.6462 31.4293 33.092 31.6668 32.4587 31.6668H5.54199Z" fill="white"/>
</g>
</g>
</svg>
