<svg width="38" height="38" viewBox="0 0 38 38" fill="none" xmlns="http://www.w3.org/2000/svg">
<g id="Icons">
<mask id="mask0_1216_771" style="mask-type:alpha" maskUnits="userSpaceOnUse" x="0" y="0" width="38" height="39">
<rect id="Bounding box" y="0.00012207" width="38" height="38" fill="#D9D9D9"/>
</mask>
<g mask="url(#mask0_1216_771)">
<path id="book_4" d="M9.5 34.8335C8.15417 34.8335 7.02604 34.3783 6.11563 33.4678C5.20521 32.5574 4.75 31.4293 4.75 30.0835V7.91681C4.75 6.59736 5.20521 5.47584 6.11563 4.55223C7.02604 3.62861 8.15417 3.16681 9.5 3.16681H23.75C24.4031 3.16681 24.9622 3.39936 25.4273 3.86447C25.8924 4.32957 26.125 4.88868 26.125 5.54181V25.3335C26.125 25.9866 25.8924 26.5457 25.4273 27.0108C24.9622 27.4759 24.4031 27.7085 23.75 27.7085H9.5C8.81389 27.7349 8.24653 27.9719 7.79792 28.4195C7.34931 28.8671 7.125 29.4218 7.125 30.0835C7.125 30.7564 7.3526 31.3205 7.80781 31.7757C8.26302 32.2309 8.82708 32.4585 9.5 32.4585H30.875V7.52098C30.875 7.18452 30.9895 6.90249 31.2184 6.67488C31.4473 6.44728 31.731 6.33348 32.0694 6.33348C32.4079 6.33348 32.6892 6.44728 32.9135 6.67488C33.1378 6.90249 33.25 7.18452 33.25 7.52098V32.4585C33.25 33.1116 33.0175 33.6707 32.5523 34.1358C32.0872 34.6009 31.5281 34.8335 30.875 34.8335H9.5ZM12.2778 25.3335C12.6162 25.3335 12.8976 25.2197 13.1219 24.9921C13.3462 24.7645 13.4583 24.4824 13.4583 24.146V6.72931C13.4583 6.39285 13.3439 6.11082 13.1149 5.88322C12.886 5.65561 12.6023 5.54181 12.2639 5.54181C11.9255 5.54181 11.6441 5.65561 11.4198 5.88322C11.1955 6.11082 11.0833 6.39285 11.0833 6.72931V24.146C11.0833 24.4824 11.1978 24.7645 11.4267 24.9921C11.6557 25.2197 11.9393 25.3335 12.2778 25.3335Z" fill="white"/>
</g>
</g>
</svg>
