<svg width="38" height="38" viewBox="0 0 38 38" fill="none" xmlns="http://www.w3.org/2000/svg">
<g id="Icons">
<mask id="mask0_1216_823" style="mask-type:alpha" maskUnits="userSpaceOnUse" x="0" y="0" width="38" height="39">
<rect id="Bounding box" y="0.00012207" width="38" height="38" fill="#D9D9D9"/>
</mask>
<g mask="url(#mask0_1216_823)">
<path id="school" d="M34.0417 25.6105V15.6355L20.1084 23.1564C19.739 23.3675 19.3563 23.4664 18.9605 23.4532C18.5646 23.44 18.182 23.3279 17.8126 23.1168L3.4834 15.2793C3.27229 15.1473 3.12055 14.9953 3.02819 14.8231C2.93583 14.6509 2.88965 14.4596 2.88965 14.2491C2.88965 14.0387 2.93583 13.8477 3.02819 13.6761C3.12055 13.5046 3.27229 13.3529 3.4834 13.2209L17.8126 5.38344C17.9938 5.27788 18.1801 5.19872 18.3714 5.14594C18.5627 5.09316 18.7591 5.06677 18.9605 5.06677C19.1619 5.06677 19.3582 5.09316 19.5496 5.14594C19.7409 5.19872 19.9272 5.27788 20.1084 5.38344L35.7834 13.8939C35.9845 13.9956 36.1403 14.1432 36.2509 14.3366C36.3614 14.53 36.4167 14.7387 36.4167 14.9626V25.6105C36.4167 25.947 36.3023 26.229 36.0733 26.4566C35.8444 26.6842 35.5607 26.798 35.2223 26.798C34.8839 26.798 34.6025 26.6842 34.3782 26.4566C34.1539 26.229 34.0417 25.947 34.0417 25.6105ZM17.8126 32.6168L8.7084 27.6293C8.33895 27.4182 8.04208 27.1246 7.81777 26.7485C7.59347 26.3725 7.48132 25.9668 7.48132 25.5314V18.6439L17.8126 24.3043C18.1729 24.5154 18.5533 24.6209 18.9537 24.6209C19.354 24.6209 19.739 24.5154 20.1084 24.3043L30.4396 18.6439V25.5314C30.4396 25.9668 30.3275 26.3725 30.1032 26.7485C29.8789 27.1246 29.582 27.4182 29.2126 27.6293L20.1084 32.6168C19.9272 32.7223 19.7409 32.8015 19.5496 32.8543C19.3582 32.9071 19.1619 32.9334 18.9605 32.9334C18.7591 32.9334 18.5627 32.9071 18.3714 32.8543C18.1801 32.8015 17.9938 32.7223 17.8126 32.6168Z" fill="white"/>
</g>
</g>
</svg>
