<svg width="35" height="35" viewBox="0 0 35 35" fill="none" xmlns="http://www.w3.org/2000/svg">
<g id="Layer 2">
<g id="award">
<path id="Vector" d="M27.7085 30.2605L24.3397 17.1355C25.5852 15.5858 26.2598 13.6549 26.2501 11.6667C26.2501 9.3461 25.3283 7.12051 23.6873 5.47956C22.0464 3.83862 19.8208 2.91675 17.5001 2.91675C15.1795 2.91675 12.9539 3.83862 11.313 5.47956C9.67202 7.12051 8.75015 9.3461 8.75015 11.6667C8.74615 13.6702 9.43674 15.6132 10.7043 17.1647L7.29181 30.2605C7.21923 30.5404 7.23149 30.8356 7.32704 31.1085C7.42259 31.3814 7.59712 31.6197 7.82845 31.7932C8.05978 31.9667 8.33746 32.0676 8.62622 32.0829C8.91498 32.0982 9.20176 32.0273 9.45015 31.8793L17.2231 27.3147L25.5064 31.8938C25.7302 32.0289 25.989 32.0949 26.2501 32.0834C26.4766 32.0906 26.7016 32.045 26.9073 31.9501C27.1131 31.8553 27.2939 31.7138 27.4354 31.5368C27.5769 31.3599 27.6753 31.1525 27.7227 30.9309C27.7701 30.7094 27.7652 30.4798 27.7085 30.2605ZM17.5001 5.83342C18.6539 5.83342 19.7817 6.17553 20.741 6.81651C21.7003 7.45748 22.4479 8.36853 22.8894 9.43443C23.331 10.5003 23.4465 11.6732 23.2214 12.8048C22.9963 13.9363 22.4407 14.9757 21.6249 15.7915C20.8091 16.6073 19.7697 17.1629 18.6382 17.388C17.5066 17.6131 16.3337 17.4976 15.2678 17.056C14.2019 16.6145 13.2909 15.8669 12.6499 14.9076C12.0089 13.9483 11.6668 12.8205 11.6668 11.6667C11.6668 10.1197 12.2814 8.63592 13.3754 7.54196C14.4693 6.448 15.9531 5.83342 17.5001 5.83342ZM17.9522 24.3688C17.7305 24.2408 17.4791 24.1735 17.2231 24.1735C16.9671 24.1735 16.7156 24.2408 16.4939 24.3688L11.0251 27.5772L13.1251 19.2647C14.4385 20.0196 15.9269 20.4168 17.4418 20.4168C18.9567 20.4168 20.4451 20.0196 21.7585 19.2647L23.9897 27.7084L17.9522 24.3688Z" fill="#E9ECEF"/>
</g>
</g>
</svg>
